<svg xmlns="http://www.w3.org/2000/svg" width="1040" height="660" viewBox="0 0 1040 660" font-family="system-ui, -apple-system, 'Segoe UI', Helvetica, Arial, sans-serif" role="img" aria-label="CoreAI Game-Creation Benchmark suite v1.15 leaderboard">
<title>CoreAI Game-Creation Benchmark - suite v1.15</title>
<defs><pattern id="hatch" width="6" height="6" patternUnits="userSpaceOnUse" patternTransform="rotate(45)"><line x1="0" y1="0" x2="0" y2="6" stroke="#ffffff" stroke-width="1.6" stroke-opacity="0.55"/></pattern></defs>
<rect width="100%" height="100%" rx="10" fill="#1a1a19"/>
<text x="24.0" y="34.0" font-size="20" fill="#ffffff" text-anchor="start" font-weight="600">CoreAI Game-Creation Benchmark - suite v1.15</text>
<text x="24.0" y="56.0" font-size="12.5" fill="#c3c2b7" text-anchor="start" font-weight="normal">Base score 0-100, mean over 28 scenarios (G1-G8), one repetition per scenario. Scores compare only within suite v1.15.</text>
<text x="266.0" y="86.0" font-size="13" fill="#ffffff" text-anchor="start" font-weight="600">Suite score</text>
<text x="586.0" y="86.0" font-size="13" fill="#ffffff" text-anchor="start" font-weight="600">Score by group</text>
<line x1="266.0" y1="104.0" x2="266.0" y2="218.0" stroke="#2c2c2a" stroke-width="1"/>
<text x="266.0" y="234.0" font-size="11" fill="#9a988f" text-anchor="middle" font-weight="normal">0</text>
<line x1="328.5" y1="104.0" x2="328.5" y2="218.0" stroke="#2c2c2a" stroke-width="1"/>
<text x="328.5" y="234.0" font-size="11" fill="#9a988f" text-anchor="middle" font-weight="normal">25</text>
<line x1="391.0" y1="104.0" x2="391.0" y2="218.0" stroke="#2c2c2a" stroke-width="1"/>
<text x="391.0" y="234.0" font-size="11" fill="#9a988f" text-anchor="middle" font-weight="normal">50</text>
<line x1="453.5" y1="104.0" x2="453.5" y2="218.0" stroke="#2c2c2a" stroke-width="1"/>
<text x="453.5" y="234.0" font-size="11" fill="#9a988f" text-anchor="middle" font-weight="normal">75</text>
<line x1="516.0" y1="104.0" x2="516.0" y2="218.0" stroke="#2c2c2a" stroke-width="1"/>
<text x="516.0" y="234.0" font-size="11" fill="#9a988f" text-anchor="middle" font-weight="normal">100</text>
<text x="612.9" y="102.0" font-size="11.5" fill="#c3c2b7" text-anchor="middle" font-weight="600">G1</text>
<text x="666.6" y="102.0" font-size="11.5" fill="#c3c2b7" text-anchor="middle" font-weight="600">G2</text>
<text x="720.4" y="102.0" font-size="11.5" fill="#c3c2b7" text-anchor="middle" font-weight="600">G3</text>
<text x="774.1" y="102.0" font-size="11.5" fill="#c3c2b7" text-anchor="middle" font-weight="600">G4</text>
<text x="827.9" y="102.0" font-size="11.5" fill="#c3c2b7" text-anchor="middle" font-weight="600">G5</text>
<text x="881.6" y="102.0" font-size="11.5" fill="#c3c2b7" text-anchor="middle" font-weight="600">G6</text>
<text x="935.4" y="102.0" font-size="11.5" fill="#c3c2b7" text-anchor="middle" font-weight="600">G7</text>
<text x="989.1" y="102.0" font-size="11.5" fill="#c3c2b7" text-anchor="middle" font-weight="600">G8</text>
<text x="24.0" y="125.0" font-size="13" fill="#ffffff" text-anchor="start" font-weight="600">codex/GPT-6 Sol</text>
<text x="24.0" y="139.0" font-size="11" fill="#c3c2b7" text-anchor="start" font-weight="normal">P/PA/F 28/0/0</text>
<rect x="266.0" y="112.0" width="250.0" height="22.0" rx="4" fill="#3987e5"><title>codex/GPT-6 Sol: suite 100.00 over 28 scenarios</title></rect>
<text x="522.0" y="127.5" font-size="12.5" fill="#ffffff" text-anchor="start" font-weight="600">100.00</text>
<rect x="587.0" y="107.0" width="51.8" height="32.0" rx="3" fill="#9ec5f4"><title>codex/GPT-6 Sol G1: 100.00</title></rect>
<text x="612.9" y="127.5" font-size="12" fill="#0b0b0b" text-anchor="middle" font-weight="600">100</text>
<rect x="640.8" y="107.0" width="51.8" height="32.0" rx="3" fill="#9ec5f4"><title>codex/GPT-6 Sol G2: 100.00</title></rect>
<text x="666.6" y="127.5" font-size="12" fill="#0b0b0b" text-anchor="middle" font-weight="600">100</text>
<rect x="694.5" y="107.0" width="51.8" height="32.0" rx="3" fill="#9ec5f4"><title>codex/GPT-6 Sol G3: 100.00</title></rect>
<text x="720.4" y="127.5" font-size="12" fill="#0b0b0b" text-anchor="middle" font-weight="600">100</text>
<rect x="748.2" y="107.0" width="51.8" height="32.0" rx="3" fill="#9ec5f4"><title>codex/GPT-6 Sol G4: 100.00</title></rect>
<text x="774.1" y="127.5" font-size="12" fill="#0b0b0b" text-anchor="middle" font-weight="600">100</text>
<rect x="802.0" y="107.0" width="51.8" height="32.0" rx="3" fill="#9ec5f4"><title>codex/GPT-6 Sol G5: 100.00</title></rect>
<text x="827.9" y="127.5" font-size="12" fill="#0b0b0b" text-anchor="middle" font-weight="600">100</text>
<rect x="855.8" y="107.0" width="51.8" height="32.0" rx="3" fill="#9ec5f4"><title>codex/GPT-6 Sol G6: 100.00</title></rect>
<text x="881.6" y="127.5" font-size="12" fill="#0b0b0b" text-anchor="middle" font-weight="600">100</text>
<rect x="909.5" y="107.0" width="51.8" height="32.0" rx="3" fill="#9ec5f4"><title>codex/GPT-6 Sol G7: 100.00</title></rect>
<text x="935.4" y="127.5" font-size="12" fill="#0b0b0b" text-anchor="middle" font-weight="600">100</text>
<rect x="963.2" y="107.0" width="51.8" height="32.0" rx="3" fill="#9ec5f4"><title>codex/GPT-6 Sol G8: 100.00</title></rect>
<text x="989.1" y="127.5" font-size="12" fill="#0b0b0b" text-anchor="middle" font-weight="600">100</text>
<text x="24.0" y="163.0" font-size="13" fill="#ffffff" text-anchor="start" font-weight="600">codex/GPT-6 Luna</text>
<text x="24.0" y="177.0" font-size="11" fill="#c3c2b7" text-anchor="start" font-weight="normal">P/PA/F 28/0/0</text>
<rect x="266.0" y="150.0" width="249.3" height="22.0" rx="4" fill="#3987e5"><title>codex/GPT-6 Luna: suite 99.70 over 28 scenarios</title></rect>
<text x="522.0" y="165.5" font-size="12.5" fill="#ffffff" text-anchor="start" font-weight="600">99.70</text>
<rect x="587.0" y="145.0" width="51.8" height="32.0" rx="3" fill="#9ec5f4"><title>codex/GPT-6 Luna G1: 100.00</title></rect>
<text x="612.9" y="165.5" font-size="12" fill="#0b0b0b" text-anchor="middle" font-weight="600">100</text>
<rect x="640.8" y="145.0" width="51.8" height="32.0" rx="3" fill="#9ec5f4"><title>codex/GPT-6 Luna G2: 100.00</title></rect>
<text x="666.6" y="165.5" font-size="12" fill="#0b0b0b" text-anchor="middle" font-weight="600">100</text>
<rect x="694.5" y="145.0" width="51.8" height="32.0" rx="3" fill="#9ec5f4"><title>codex/GPT-6 Luna G3: 100.00</title></rect>
<text x="720.4" y="165.5" font-size="12" fill="#0b0b0b" text-anchor="middle" font-weight="600">100</text>
<rect x="748.2" y="145.0" width="51.8" height="32.0" rx="3" fill="#9ec5f4"><title>codex/GPT-6 Luna G4: 100.00</title></rect>
<text x="774.1" y="165.5" font-size="12" fill="#0b0b0b" text-anchor="middle" font-weight="600">100</text>
<rect x="802.0" y="145.0" width="51.8" height="32.0" rx="3" fill="#9ec5f4"><title>codex/GPT-6 Luna G5: 100.00</title></rect>
<text x="827.9" y="165.5" font-size="12" fill="#0b0b0b" text-anchor="middle" font-weight="600">100</text>
<rect x="855.8" y="145.0" width="51.8" height="32.0" rx="3" fill="#2a78d6"><title>codex/GPT-6 Luna G6: 91.67</title></rect>
<text x="881.6" y="165.5" font-size="12" fill="#ffffff" text-anchor="middle" font-weight="600">91.7</text>
<text x="904.5" y="156.0" font-size="9.5" fill="#ffffff" text-anchor="end" font-weight="700">1</text>
<rect x="909.5" y="145.0" width="51.8" height="32.0" rx="3" fill="#9ec5f4"><title>codex/GPT-6 Luna G7: 100.00</title></rect>
<text x="935.4" y="165.5" font-size="12" fill="#0b0b0b" text-anchor="middle" font-weight="600">100</text>
<rect x="963.2" y="145.0" width="51.8" height="32.0" rx="3" fill="#9ec5f4"><title>codex/GPT-6 Luna G8: 100.00</title></rect>
<text x="989.1" y="165.5" font-size="12" fill="#0b0b0b" text-anchor="middle" font-weight="600">100</text>
<text x="24.0" y="201.0" font-size="13" fill="#ffffff" text-anchor="start" font-weight="600">opencode/space-bunny-free</text>
<text x="24.0" y="215.0" font-size="11" fill="#c3c2b7" text-anchor="start" font-weight="normal">P/PA/F 26/1/1</text>
<rect x="266.0" y="188.0" width="239.7" height="22.0" rx="4" fill="#3987e5"><title>opencode/space-bunny-free: suite 95.89 over 28 scenarios</title></rect>
<text x="522.0" y="203.5" font-size="12.5" fill="#ffffff" text-anchor="start" font-weight="600">95.89</text>
<rect x="587.0" y="183.0" width="51.8" height="32.0" rx="3" fill="#9ec5f4"><title>opencode/space-bunny-free G1: 100.00</title></rect>
<text x="612.9" y="203.5" font-size="12" fill="#0b0b0b" text-anchor="middle" font-weight="600">100</text>
<rect x="640.8" y="183.0" width="51.8" height="32.0" rx="3" fill="#9ec5f4"><title>opencode/space-bunny-free G2: 100.00</title></rect>
<text x="666.6" y="203.5" font-size="12" fill="#0b0b0b" text-anchor="middle" font-weight="600">100</text>
<rect x="694.5" y="183.0" width="51.8" height="32.0" rx="3" fill="#9ec5f4"><title>opencode/space-bunny-free G3: 100.00</title></rect>
<text x="720.4" y="203.5" font-size="12" fill="#0b0b0b" text-anchor="middle" font-weight="600">100</text>
<rect x="748.2" y="183.0" width="51.8" height="32.0" rx="3" fill="#9ec5f4"><title>opencode/space-bunny-free G4: 100.00</title></rect>
<text x="774.1" y="203.5" font-size="12" fill="#0b0b0b" text-anchor="middle" font-weight="600">100</text>
<rect x="802.0" y="183.0" width="51.8" height="32.0" rx="3" fill="#1c5cab"><title>opencode/space-bunny-free G5: 83.33</title></rect>
<rect x="802.0" y="183.0" width="51.8" height="32.0" rx="3" fill="url(#hatch)"/>
<text x="827.9" y="203.5" font-size="12" fill="#ffffff" text-anchor="middle" font-weight="600">83.3</text>
<text x="850.8" y="194.0" font-size="9.5" fill="#ffffff" text-anchor="end" font-weight="700">2</text>
<rect x="855.8" y="183.0" width="51.8" height="32.0" rx="3" fill="#1c5cab"><title>opencode/space-bunny-free G6: 85.00</title></rect>
<rect x="855.8" y="183.0" width="51.8" height="32.0" rx="3" fill="url(#hatch)"/>
<text x="881.6" y="203.5" font-size="12" fill="#ffffff" text-anchor="middle" font-weight="600">85.0</text>
<text x="904.5" y="194.0" font-size="9.5" fill="#ffffff" text-anchor="end" font-weight="700">3</text>
<rect x="909.5" y="183.0" width="51.8" height="32.0" rx="3" fill="#9ec5f4"><title>opencode/space-bunny-free G7: 100.00</title></rect>
<text x="935.4" y="203.5" font-size="12" fill="#0b0b0b" text-anchor="middle" font-weight="600">100</text>
<rect x="963.2" y="183.0" width="51.8" height="32.0" rx="3" fill="#9ec5f4"><title>opencode/space-bunny-free G8: 100.00</title></rect>
<text x="989.1" y="203.5" font-size="12" fill="#0b0b0b" text-anchor="middle" font-weight="600">100</text>
<text x="586.0" y="252.0" font-size="11" fill="#c3c2b7" text-anchor="start" font-weight="normal">Group score:</text>
<rect x="664.0" y="242.0" width="14" height="12" rx="2" fill="#9ec5f4"/>
<text x="682.0" y="252.0" font-size="11" fill="#c3c2b7" text-anchor="start" font-weight="normal">100</text>
<rect x="708.6" y="242.0" width="14" height="12" rx="2" fill="#5598e7"/>
<text x="726.6" y="252.0" font-size="11" fill="#c3c2b7" text-anchor="start" font-weight="normal">95-99.9</text>
<rect x="778.0" y="242.0" width="14" height="12" rx="2" fill="#2a78d6"/>
<text x="796.0" y="252.0" font-size="11" fill="#c3c2b7" text-anchor="start" font-weight="normal">90-94.9</text>
<rect x="847.4" y="242.0" width="14" height="12" rx="2" fill="#1c5cab"/>
<text x="865.4" y="252.0" font-size="11" fill="#c3c2b7" text-anchor="start" font-weight="normal">75-89.9</text>
<rect x="916.8" y="242.0" width="14" height="12" rx="2" fill="#104281"/>
<text x="934.8" y="252.0" font-size="11" fill="#c3c2b7" text-anchor="start" font-weight="normal">50-74.9</text>
<rect x="986.2" y="242.0" width="14" height="12" rx="2" fill="#0d366b"/>
<text x="1004.2" y="252.0" font-size="11" fill="#c3c2b7" text-anchor="start" font-weight="normal">&lt;50</text>
<rect x="664.0" y="262.0" width="14" height="12" rx="2" fill="#2a78d6"/>
<rect x="664.0" y="262.0" width="14" height="12" rx="2" fill="url(#hatch)"/>
<text x="682.0" y="272.0" font-size="11" fill="#c3c2b7" text-anchor="start" font-weight="normal">hatched = group has a PARTIAL/FAIL or excluded scenario</text>
<text x="682.0" y="288.0" font-size="11" fill="#c3c2b7" text-anchor="start" font-weight="normal">small numbers refer to the notes below</text>
<text x="266.0" y="318.0" font-size="13" fill="#ffffff" text-anchor="start" font-weight="600">Tokens (prompt + completion, as reported)</text>
<text x="706.0" y="318.0" font-size="13" fill="#ffffff" text-anchor="start" font-weight="600">Failed tool calls / executed</text>
<line x1="266.0" y1="336.0" x2="266.0" y2="450.0" stroke="#2c2c2a" stroke-width="1"/>
<text x="266.0" y="466.0" font-size="11" fill="#9a988f" text-anchor="middle" font-weight="normal">0</text>
<line x1="376.0" y1="336.0" x2="376.0" y2="450.0" stroke="#2c2c2a" stroke-width="1"/>
<text x="376.0" y="466.0" font-size="11" fill="#9a988f" text-anchor="middle" font-weight="normal">10k</text>
<line x1="486.0" y1="336.0" x2="486.0" y2="450.0" stroke="#2c2c2a" stroke-width="1"/>
<text x="486.0" y="466.0" font-size="11" fill="#9a988f" text-anchor="middle" font-weight="normal">20k</text>
<line x1="596.0" y1="336.0" x2="596.0" y2="450.0" stroke="#2c2c2a" stroke-width="1"/>
<text x="596.0" y="466.0" font-size="11" fill="#9a988f" text-anchor="middle" font-weight="normal">30k</text>
<text x="24.0" y="359.0" font-size="13" fill="#ffffff" text-anchor="start" font-weight="600">codex/GPT-6 Sol</text>
<rect x="266.0" y="344.0" width="228.4" height="22.0" rx="4" fill="#3987e5"><title>codex/GPT-6 Sol: 20762 tokens</title></rect>
<text x="500.4" y="359.5" font-size="12" fill="#ffffff" text-anchor="start" font-weight="normal">20,762</text>
<rect x="706.0" y="344.0" width="240.0" height="22.0" rx="4" fill="#262624"/>
<text x="952.0" y="359.5" font-size="12" fill="#ffffff" text-anchor="start" font-weight="normal">0 / 66</text>
<text x="24.0" y="397.0" font-size="13" fill="#ffffff" text-anchor="start" font-weight="600">codex/GPT-6 Luna</text>
<rect x="266.0" y="382.0" width="254.8" height="22.0" rx="4" fill="#3987e5"><title>codex/GPT-6 Luna: 23162 tokens</title></rect>
<text x="526.8" y="397.5" font-size="12" fill="#ffffff" text-anchor="start" font-weight="normal">23,162</text>
<rect x="706.0" y="382.0" width="240.0" height="22.0" rx="4" fill="#262624"/>
<rect x="706.0" y="382.0" width="7.3" height="22.0" rx="4" fill="#f2877f"><title>codex/GPT-6 Luna: 2 of 66 executed calls failed</title></rect>
<text x="952.0" y="397.5" font-size="12" fill="#ffffff" text-anchor="start" font-weight="normal">2 / 66</text>
<text x="24.0" y="435.0" font-size="13" fill="#ffffff" text-anchor="start" font-weight="600">opencode/space-bunny-free</text>
<rect x="266.0" y="420.0" width="241.2" height="22.0" rx="4" fill="#3987e5"><title>opencode/space-bunny-free: 21925 tokens</title></rect>
<text x="513.2" y="435.5" font-size="12" fill="#ffffff" text-anchor="start" font-weight="normal">21,925</text>
<rect x="706.0" y="420.0" width="225.5" height="22.0" rx="4" fill="#262624"/>
<rect x="706.0" y="420.0" width="4.0" height="22.0" rx="4" fill="#f2877f"><title>opencode/space-bunny-free: 1 of 62 executed calls failed</title></rect>
<text x="937.5" y="435.5" font-size="12" fill="#ffffff" text-anchor="start" font-weight="normal">1 / 62</text>
<text x="24.0" y="490.0" font-size="12.5" fill="#ffffff" text-anchor="start" font-weight="600">Notes</text>
<text x="24.0" y="508.0" font-size="11.5" fill="#c3c2b7" text-anchor="start" font-weight="normal">1. codex/GPT-6 Luna - G6: g6_free_build_vision environment failure in run 20260929_154152 (provider error: stream failed after 1 executed tool...)</text>
<text x="40.0" y="524.0" font-size="11.5" fill="#c3c2b7" text-anchor="start" font-weight="normal">excluded; score from run 20260929_163934</text>
<text x="24.0" y="540.0" font-size="11.5" fill="#c3c2b7" text-anchor="start" font-weight="normal">2. opencode/space-bunny-free - G5: g5_exactly_three FAIL 0.00 [212753]</text>
<text x="24.0" y="556.0" font-size="11.5" fill="#c3c2b7" text-anchor="start" font-weight="normal">3. opencode/space-bunny-free - G6: g6_free_build_vision PARTIAL 85.00 [205051]</text>
<text x="24.0" y="578.0" font-size="11" fill="#9a988f" text-anchor="start" font-weight="600">Run ids (Docs/BenchmarkRuns):</text>
<text x="24.0" y="593.0" font-size="11" fill="#9a988f" text-anchor="start" font-weight="normal">codex/GPT-6 Sol: 20260929_165050, 20260929_170723</text>
<text x="24.0" y="608.0" font-size="11" fill="#9a988f" text-anchor="start" font-weight="normal">codex/GPT-6 Luna: 20260929_154152, 20260929_163934</text>
<text x="24.0" y="623.0" font-size="11" fill="#9a988f" text-anchor="start" font-weight="normal">opencode/space-bunny-free: 20260929_205051, 20260929_212753</text>
<text x="24.0" y="638.0" font-size="11" fill="#9a988f" text-anchor="start" font-weight="normal">Each scenario uses the newest model-attributable result of that model within the suite; environment/framework failures never count as model scores. Built by tools/benchmark_chart.py.</text>
</svg>
