<svg xmlns="http://www.w3.org/2000/svg" width="1096" height="456" viewBox="0 0 1096 456" font-family="Segoe UI, Arial, sans-serif"><rect width="1096" height="456" rx="10" fill="#1e1f24"/><text x="24" y="38" fill="#e8e8ea" font-size="22" font-weight="bold">CoreAI Game-Creation Benchmark v1</text><text x="24" y="58" fill="#9aa0a6" font-size="12">Suite base score (0–100, higher is better), ranked best-first</text><line x1="72" y1="332" x2="1062" y2="332" stroke="#5a5f68" stroke-width="1"/><text x="60" y="336" fill="#9aa0a6" font-size="11" text-anchor="end">0%</text><line x1="72" y1="267" x2="1062" y2="267" stroke="#33353b" stroke-width="1"/><text x="60" y="271" fill="#9aa0a6" font-size="11" text-anchor="end">25%</text><line x1="72" y1="202" x2="1062" y2="202" stroke="#33353b" stroke-width="1"/><text x="60" y="206" fill="#9aa0a6" font-size="11" text-anchor="end">50%</text><line x1="72" y1="137" x2="1062" y2="137" stroke="#33353b" stroke-width="1"/><text x="60" y="141" fill="#9aa0a6" font-size="11" text-anchor="end">75%</text><line x1="72" y1="72" x2="1062" y2="72" stroke="#33353b" stroke-width="1"/><text x="60" y="76" fill="#9aa0a6" font-size="11" text-anchor="end">100%</text><line x1="72" y1="72" x2="72" y2="332" stroke="#5a5f68" stroke-width="1"/><rect x="100" y="90" width="55" height="242" rx="5" fill="#4cb863" stroke="none" stroke-width="0"/><text x="127" y="82" fill="#e8e8ea" font-size="12" font-weight="bold" text-anchor="middle">93.1</text><text x="123" y="356" fill="#c8ccd0" font-size="11" text-anchor="end" transform="rotate(-30 123 356)">qwen3.6-27b-heretic-unc…</text><rect x="210" y="92" width="55" height="240" rx="5" fill="#4cb863" stroke="none" stroke-width="0"/><text x="237" y="84" fill="#e8e8ea" font-size="12" font-weight="bold" text-anchor="middle">92.1</text><text x="233" y="356" fill="#c8ccd0" font-size="11" text-anchor="end" transform="rotate(-30 233 356)">deepreinforce-ai_ornith…</text><rect x="320" y="93" width="55" height="239" rx="5" fill="#4cb863" stroke="none" stroke-width="0"/><text x="347" y="85" fill="#e8e8ea" font-size="12" font-weight="bold" text-anchor="middle">92</text><text x="343" y="356" fill="#c8ccd0" font-size="11" text-anchor="end" transform="rotate(-30 343 356)">qwen3.5-4b-mtp</text><rect x="430" y="105" width="55" height="227" rx="5" fill="#4cb863" stroke="none" stroke-width="0"/><text x="457" y="97" fill="#e8e8ea" font-size="12" font-weight="bold" text-anchor="middle">87.3</text><text x="453" y="356" fill="#c8ccd0" font-size="11" text-anchor="end" transform="rotate(-30 453 356)">qwen3.6-27b-fable-5-exp…</text><rect x="540" y="111" width="55" height="221" rx="5" fill="#4cb863" stroke="none" stroke-width="0"/><text x="567" y="103" fill="#e8e8ea" font-size="12" font-weight="bold" text-anchor="middle">84.8</text><text x="563" y="356" fill="#c8ccd0" font-size="11" text-anchor="end" transform="rotate(-30 563 356)">qwen3.5-2b</text><rect x="650" y="121" width="55" height="211" rx="5" fill="#4cb863" stroke="none" stroke-width="0"/><text x="677" y="113" fill="#e8e8ea" font-size="12" font-weight="bold" text-anchor="middle">81.1</text><text x="673" y="356" fill="#c8ccd0" font-size="11" text-anchor="end" transform="rotate(-30 673 356)">deepreinforce-ai_ornith…</text><rect x="760" y="121" width="55" height="211" rx="5" fill="#4cb863" stroke="none" stroke-width="0"/><text x="787" y="113" fill="#e8e8ea" font-size="12" font-weight="bold" text-anchor="middle">81</text><text x="783" y="356" fill="#c8ccd0" font-size="11" text-anchor="end" transform="rotate(-30 783 356)">qwythos-9b-claude-mytho…</text><rect x="870" y="182" width="55" height="150" rx="5" fill="#e8bd44" stroke="none" stroke-width="0"/><text x="897" y="174" fill="#e8e8ea" font-size="12" font-weight="bold" text-anchor="middle">57.8</text><text x="893" y="356" fill="#c8ccd0" font-size="11" text-anchor="end" transform="rotate(-30 893 356)">qwen3.5-0.8b</text><rect x="980" y="300" width="55" height="32" rx="5" fill="#dc5c57" stroke="none" stroke-width="0"/><text x="1007" y="292" fill="#e8e8ea" font-size="12" font-weight="bold" text-anchor="middle">12.4</text><text x="1003" y="356" fill="#c8ccd0" font-size="11" text-anchor="end" transform="rotate(-30 1003 356)">lfm2-8b-a1b</text></svg>