<svg xmlns="http://www.w3.org/2000/svg" width="560" height="346" viewBox="0 0 560 346" font-family="Segoe UI, Arial, sans-serif"><rect width="560" height="346" rx="10" fill="#1e1f24"/><text x="20" y="34" fill="#e8e8ea" font-size="18" font-weight="bold">qwen3.6-27b-fable-5-experimental</text><text x="540" y="44" fill="#4cb863" font-size="40" font-weight="bold" text-anchor="end">83.9</text><text x="540" y="62" fill="#9aa0a6" font-size="11" text-anchor="end">/ 100</text><text x="20" y="58" fill="#9aa0a6" font-size="12">PASS 17 · PARTIAL 3 · FAIL 4 · 70.8% pass-rate</text><text x="20" y="107" fill="#c8ccd0" font-size="12">Tool correctness</text><rect x="150" y="96" width="320" height="14" rx="3" fill="#33353b"/><rect x="150" y="96" width="252" height="14" rx="3" fill="#4cb863"/><text x="480" y="107" fill="#e8e8ea" font-size="12">78.7</text><text x="20" y="133" fill="#c8ccd0" font-size="12">Intent &amp; sequence</text><rect x="150" y="122" width="320" height="14" rx="3" fill="#33353b"/><rect x="150" y="122" width="257" height="14" rx="3" fill="#4cb863"/><text x="480" y="133" fill="#e8e8ea" font-size="12">80.4</text><text x="20" y="159" fill="#c8ccd0" font-size="12">Task completion</text><rect x="150" y="148" width="320" height="14" rx="3" fill="#33353b"/><rect x="150" y="148" width="271" height="14" rx="3" fill="#4cb863"/><text x="480" y="159" fill="#e8e8ea" font-size="12">84.7</text><text x="20" y="185" fill="#c8ccd0" font-size="12">Determinism</text><rect x="150" y="174" width="320" height="14" rx="3" fill="#33353b"/><rect x="150" y="174" width="160" height="14" rx="3" fill="#e8bd44"/><text x="480" y="185" fill="#e8e8ea" font-size="12">50</text><text x="20" y="211" fill="#c8ccd0" font-size="12">Reasoning</text><rect x="150" y="200" width="320" height="14" rx="3" fill="#33353b"/><rect x="150" y="200" width="261" height="14" rx="3" fill="#4cb863"/><text x="480" y="211" fill="#e8e8ea" font-size="12">81.5</text><text x="20" y="237" fill="#c8ccd0" font-size="12">Instruction adherence</text><rect x="150" y="226" width="320" height="14" rx="3" fill="#33353b"/><rect x="150" y="226" width="302" height="14" rx="3" fill="#4cb863"/><text x="480" y="237" fill="#e8e8ea" font-size="12">94.4</text><text x="20" y="272" fill="#9aa0a6" font-size="11">26425 gen tokens · 15.4 tok/s · 1718.6 s · bonus +2.5 (tok +0.8, time +1.7)</text></svg>